/* XPM */
static char *_fb1e0e85b4e4efaab55d0c6f63f9db2[] = {
/* columns rows colors chars-per-pixel */
"64 64 2 1 ",
"  c black",
". c #003757",
/* pixels */
".                                     .                 .       ",
" .                                   .                   .      ",
" .                                   .                   .      ",
" .                                  .                    .      ",
" .                                  .                    .      ",
"  .                                .                     .      ",
"  .                                .                     .      ",
"  .                               .                      .      ",
"   .                             .                ........      ",
"   .                           ...               .       .      ",
"   ...                        . .              ..        .      ",
"    . ..                   ... .              .          .      ",
"    .   ...              ..    .             .           .      ",
"     .     ..............     .             .            .      ",
"     .                       .             .             .      ",
"      .                     .              .             .      ",
"       .                   .              .              .      ",
"       .                  ..             .              .       ",
"        .                . .             .              .       ",
"         .              .   .           .               .       ",
"          .            .    .           .               .       ",
"           ..         .      .          .              .        ",
"             .       .       .         .               .        ",
"              ..   ..         .       .               .         ",
"                ...            .      .              .          ",
"                .              ..     .             .           ",
"              ..             ..  ..  .              .           ",
"            ..            ...      . .             .            ",
"         ...             .          ..           ..             ",
"       ..              ..             ..        .               ",
"    ...              ...                ....  ..                ",
"....                .  .                    ....................",
" .                ..  .                            .            ",
" .               .    .                             .           ",
" .              .     .                             .           ",
" .             .      .                             .           ",
"  .           .       .                             .           ",
"  .          .         .                            .           ",
"  .         .          .                            .           ",
"   .        .          .                            .           ",
"   .       .            .                          .            ",
"    .     .             .                          .            ",
"     .    .              .                        .             ",
"      .. .                .                     ..              ",
"        ..                 .                  ..                ",
"         .                  ..   ......     ..                  ",
"         .                 ......      ........                 ",
"         .              ...                    .....            ",
"         .             .                            ....        ",
"......   .           ..                             ..  ........",
"      ....          .                              .            ",
"         .....     .                              .             ",
"              ... .                              .              ",
"                 ..                             .               ",
"                   ...                         .                ",
"                      ..                      .                 ",
"                        .                    .                  ",
"                         ..                 .                   ",
"                           .                .                   ",
"                            .               .                   ",
"                             .             .                    ",
"                              .            .                    ",
"                               ..          .                    ",
"                                 .         .                    "
};
