/* XPM */
static char *_ac74e5fecd04d58f5f37211e7f3b74d[] = {
/* columns rows colors chars-per-pixel */
"64 64 9 1 ",
"  c black",
". c gray7",
"X c #0E0033",
"o c #1F0033",
"O c #190057",
"+ c #23007A",
"@ c #2D009E",
"# c #3800C7",
"$ c #6D33FF",
/* pixels */
"................................................................",
"................................................................",
"................................................................",
"................................................................",
"................................................................",
"................................................................",
"................................................................",
"................................................................",
"................................................................",
"oooooooooooooooooooooooooooooooooooooooooooooooooooooooooooooooo",
"oooooooooooooooooooooooooooooooooooooooooooooooooooooooooooooooo",
"o                                                              o",
"o    +++####XXXXX#######   ##   XX       ###               ### o",
"o XX ++++++#XXXXX#######   XX   #X       ###               ### o",
"o XX ++++++#XXXXX#####XX   ##   #X       ###  OOOO OO X O  ### o",
"o    ++++++#XXXXX####XXX   ##   XX       #X#  OOOO O  XXO  ### o",
"o XX +++++++++XXX####XXX                                   ### o",
"o XX ++++++++XXXX####XXX                                   ### o",
"o    ++++++++XXXXX###XXX    X   X#   XX  XXX    X OO XOO   ### o",
"o OO ++++++++XXXXX###XXX   X    XX   XX  XXX   OX OO  OO   $#$ o",
"o OO ++++++++XXXXX###XXX   XX   XX   XX  XXX  XXXXXXXXXXX  #$# o",
"o OO ++++++++XXXXX###XXX   XX   XX   XX  XXX               $#$ o",
"o    ++++++++XXXXX@####X   XX   XX   XX  XXX   OOO O  XXO  #$# o",
"o XX ++++++++XXXXX#X###X   X    XX   XX  XXX  OOOO OO X O  $$$ o",
"o XX ++++++++XXXXX#X###X   XX   X#   XX  XXX  XXXXXXXXXXX  X$# o",
"o    ++++++++XXXXX#XXXXX        ##   XX  XXX               XX$ o",
"o XX ++++++++XXXXX#XXXXX                      XOOX OO OO   XX$ o",
"o XX +++++   XXXXX#XXXXX                      XO X      O  XX$ o",
"o XX ++++     XXXX#XXXXX   XX   XX   XX  XXX  XXXXXXXXXXX  XX$ o",
"o    ++++     ++++++++XX   XX   XX   ##  XXX               XX$ o",
"o XX ++++     ++++++++XX   XX   XX   XX  X X    X OO OXO   XXX o",
"o XX +++++   +++++++++++   XX   XX   XX  XX    OX OO  XO   XXX o",
"o    +++ + + +++++++++++   XX   XX   XX  X X  XXXXXXXXXXX  XXX o",
"o XX +++++++++ +++++++++   XX   XX   ##  X X               ++X o",
"o                  +++++   XX   XX   XX  X X   OOO O  XXO  ++X o",
"o                  +++XX   XX   XX   XX  XXX  OOOO OO X O  ++X o",
"o ####       X     +++XX                                     X o",
"o #### XXXX  X     +++XX                                     X o",
"o   ## XXXX  X     +++XX   XX   X    ##  XXX  O OOOO  X   X  X o",
"o   ## XXXX  X     +++XX   XX   XX   #X  XXX  O OOOO  XO  X  X o",
"o #  # XXXX  X             XX   XX   #X  XXX                   o",
"o                   + X    #X        ##  ###                +X o",
"o                   + X    #X        #X  ###  OO O  O OOO X    o",
"o                          ##        XX  ###  OO OO OOOOO X XX o",
"o                  +++XX   XX        XX  XXX  XXXXXXXXXXXXX XX o",
"o                  +++XX                                    XX o",
"o                  +++XX                      O OOO   OO  O XX o",
"o                  +++XX                      O OOOX  O   O  + o",
"o                  +++XX        ##   ##       XXXXXXXXXXXXX ++ o",
"o                  +++XX        ##   XX                     ++ o",
"o                  +++XX        #X   ##       OO    O OX    ++ o",
"o                  +++XX        ##   ##       OO OO OOOXX O ++ o",
"o                                                              o",
"oooooooooooooooooooooooooooooooooooooooooooooooooooooooooooooooo",
"oooooooooooooooooooooooooooooooooooooooooooooooooooooooooooooooo",
"................................................................",
"................................................................",
"................................................................",
"................................................................",
"................................................................",
"................................................................",
"................................................................",
"................................................................",
"................................................................"
};
