/* XPM */
static char *f637a94f0a2c4351989fc1a0633f9f89[] = {
/* columns rows colors chars-per-pixel */
"64 64 7 1 ",
"  c black",
". c gray7",
"X c #0E0033",
"o c #1F0033",
"O c #23007A",
"+ c #3800C7",
"@ c #6D33FF",
/* pixels */
"................................................................",
"................................................................",
"................................................................",
"................................................................",
"................................................................",
"................................................................",
"................................................................",
"................................................................",
"................................................................",
"oooooooooooooooooooooooooooooooooooooooooooooooooooooooooooooooo",
"oooooooooooooooooooooooooooooooooooooooooooooooooooooooooooooooo",
"o                                                              o",
"o ++++OOOOOOO++++++++++++++++++++++++++++ XX XXX    ++ XXX XX  o",
"o +++OOOOOOOO++++++++++++++++++++++++++++                      o",
"o ++OOOOOOOOO++++++++++++++++++++++++++OO    +++ XX    XXX ++  o",
"o ++OOOOOOOOO++++++++++++++++++++++++++OO    +++ XX ++ XXX ++  o",
"o ++OOOOOOOOO++++++++++++++++XXXXXXX+++OO                      o",
"o ++OOOOOOOOO+++++++++++++++++++++++++++O XX     ++ XX     XX  o",
"o ++OOOOOOOOO++++++++++++++++XXXXXXX++O+O    XXX ++ XX     XX  o",
"o ++OOOOOOOOO+++++++++++++++@XXXXXOOOOOOO                      o",
"o ++OOOOOOOOO++++++++++++++@+XXXXXOOOOOOO ++ XXX    XX XXX ++  o",
"o ++OOOOOOOOO+++++++++++++++@XXXXXOOOOOOO ++ XXX XX XX XX  ++  o",
"o ++OOOOOOOOOOOOO++++++++++@+XXXXXOOOOOOO ++ XXX    XX     ++  o",
"o ++ OOOOOOOOOOO+++++++++++@@XXXXXOOOOOOO                      o",
"o +   OOOOOOOOOO+++++++++++@+XXXXXOOOOOOO ++     XX    XXX XX  o",
"o +    OOOOOOOOO+++++++++++@@XXXXXOOOOOOO ++     XX    XXX XX  o",
"o +    OOOOOOOOO+++++++++++@@XXXXXOOOOOOO                      o",
"o +    OOOOOOOOO+++++++++++@@XXXXXOOOOOOO XX +++ XX        ++  o",
"o +    OOOOOOOO +++++++++++@@XXXXXOOOOOOO XX + + X         ++  o",
"o +    OOOOOOO  +++++++XXXXX@XXXXXOOOOOOO XX +++ XX         +  o",
"o                  +++XXXXXX@XXXXXOOOOOOO                      o",
"o                  ++XXXXXXX@XXXXXOOOXXXXXXXXXXXXXXXX+++++++++ o",
"o                  +XXXXXXXXXXXXXXOOOXXXXXXXXXXXXXXXX+++++++++ o",
"o                  +XXXXXXXXXXXXXXOOOXXXXXXXXXXXXXXXX+++++++++ o",
"o                  XXXXXXXXXXXXXXXOOOXXXXXXXXXXXXXXXXXXXXXXXXX o",
"o                  XXXXXXXXXXXXXXX                             o",
"o                  XXXXXXXXXXXXXXX ++ XXX XX     XX XX XXX XX  o",
"o                  XXXOOXXXXXXXXXX ++ XXX XX  ++ XX XX XXX XX  o",
"o                  XXOOOOXXXXXXXXX                             o",
"o                  XXOOOOXXXXXXXXX XX XXX XX XXX       +++     o",
"o                  XXOOOOXXXXXXXXX XX XXX XX XXX  +            o",
"o                  XXOOOOXXXXXXXXX                             o",
"o                  XXOOOOXXXXXXXXX        ++ XXX XX XX XXX XX  o",
"o                  XXOOOOXXXXXXXXX        ++ XXX XX XX XXX XX  o",
"o                  XOOOOOOXXXXXXXX        ++ XXX XX XX   X XX  o",
"o                  XOXXXXOXXXXXXXX                      +      o",
"o                  XOXXXXOXXXXXXXX ++ XXX XX     ++ ++ +++ XX  o",
"o                  XOXXXXOXXXXXXXX ++     XX XXX ++ ++ +  +XX  o",
"o                  OOOOOOOOXXXXXXX                             o",
"o                  OOOOOOOOOXXXXXX XX +++    XXX XX X +++++ X  o",
"o                  OOOOOOOOOOXXXXX    +++        XX X ++++ XX  o",
"o                  OOOOOOOOOOOXXXX XX +++ XX XXX XX XX ++  XX  o",
"o                                                              o",
"oooooooooooooooooooooooooooooooooooooooooooooooooooooooooooooooo",
"oooooooooooooooooooooooooooooooooooooooooooooooooooooooooooooooo",
"................................................................",
"................................................................",
"................................................................",
"................................................................",
"................................................................",
"................................................................",
"................................................................",
"................................................................",
"................................................................"
};
