/* XPM */
static char *_bfc87fa38fe4bc2da502780c6676f85[] = {
/* columns rows colors chars-per-pixel */
"64 64 8 1 ",
"  c black",
". c gray7",
"X c #0E0033",
"o c #1F0033",
"O c #190057",
"+ c #23007A",
"@ c #3800C7",
"# c #6D33FF",
/* pixels */
"................................................................",
"................................................................",
"................................................................",
"................................................................",
"................................................................",
"................................................................",
"................................................................",
"................................................................",
"................................................................",
"oooooooooooooooooooooooooooooooooooooooooooooooooooooooooooooooo",
"oooooooooooooooooooooooooooooooooooooooooooooooooooooooooooooooo",
"o                                                              o",
"o @@ XXX XX XXXXXX@@@@@@@@@@@@@@@@@@@@@@@@@@@@@@@@@@@@@@@@@@++ o",
"o              XXX@@@@@@@@@@@@@@@@@@@@@@@@@@@@@@@@@@@@@@@@@@++ o",
"o    XXX @@ XXXXXX@@@@@@@@@@@@@@@@@@@@@@@@@@@@@@@@@@@@@@@@@@++ o",
"o XX XXX @@ XXXXXX@@@@@@@@@@@@@@@@@@@@@@@@@@@@@@@@@@@@@@@@@@++ o",
"o              XXX@@@@@@@@@@@@@@@@@@@@@@@@@@@@@@@@@@@@@@@@@    o",
"o XX     XX XXXXXX@@@@@@@@@@@@@@@@@@@@@@@@@@@@@@@@@@@@@@@@     o",
"o XX @@@ XX XXXXXX@@#@@@#XX@#@@@#@@@#@@@#@@+++++++@@@@@@@      o",
"o              XXX@#@#@#XXXX@#@#@#@#@#@#@@@++++++++++++++      o",
"o XX XXX XX    XXX#@#@#XXXXXX@#@#@#@#@#@#@@++++++++++++++   OO o",
"o XX XXX XX    XXX@#@#@XXXXXX#@#@#@#@## @@@+++++++++++++ X   X o",
"o XX XXX XX    XXX#@#@#XXXXXX@#@#@#@#@#@#@@++                  o",
"o              XXX#####XXXXXX########### @@+++                 o",
"o @@ XXX @@    XXX#@##XXXXXXX##@###@###@#@@+++ X   X  @@@@ @@  o",
"o @@ XXX @@    XXX###XXXXXXXX############@@+++ X  @X  @@ @     o",
"o              XXX##XXXXXXXXX@###@###@### @+++ XXXXXXXXXXXXXXX o",
"o    @@@    @@@XXX##XXXXXXXXX####X+++####@@+++                 o",
"o    @@@ XX @@@XXX##XXXXXXXXX###XX+++####@ +++ X @@@ @  @ @@ @ o",
"o XX @@@ XX @@@XXX##XXXXXXXXX##XXX++           X @@@@@ @@ @@   o",
"o              XXX##XXXXXXXXX##XXX++           XXXXXXXXXXXXXXX o",
"o @@@@@@@@@@@@@XXXX#XXXXXXXXX##XXX++   XX  XXX                 o",
"o @@@@@@@@@@@@@XXXX#XXXXXXXXX##XXX++   XX  XXX @  @@   @@@ @   o",
"o @@@@@@@@@@@@@XXXX#XXXXXXXXX##XXXX+   XX  XXX @   @  X@@@ @@  o",
"o XXXXXXXXXXXXXXXXX#XXXXXXXXX##XX+X+   XX   XX XXXXXXXXXXXXXXX o",
"o                     XXXXXXXXX+++++   XX  XXX                 o",
"o XX     XX    XXX @@ XXXXXXXXXX++++   XX  XXX    X@ @    @@   o",
"o XX @@@ XX    XXX @@ XXXXXXXXXX++++   XX  X   @ XX@@@ @@ @@   o",
"o                     +XXXXXXXXX++++   XX  X   XXXXXXXXXXXXXXX o",
"o @@ XXX XX    XXX XX +XXXXXXXXX++++                           o",
"o @@ XXX XX    XXX XX +++XXXXXXX++++           @   X  @ X@ @@  o",
"o                     +++XXXXXXX++++   OO                      o",
"o XX @@@    XXX @@ XX +++XXXXXXX++++   O @ @                   o",
"o XX        XXX@   XX +++XXXXXXX++++     @@@   @ XX@@@ @@ @@   o",
"o XX @@@    XXX @@ XX +++XXXXXXX++++               @ @  @ @@@@ o",
"o                     ++++X+++X+++++  @ @  X                   o",
"o XX XXX    XXXXXX    +++XXX+XXX++++                           o",
"o XX XXX    XXXXXX    +++XXX+XXX+++   @ @X     @@@@@ @  @ X@ @ o",
"o                     +++XXX+XXX++             @ @@@ @    X@   o",
"o    XXX XX XXX@@@ XX +++XXX+XXX +  X XXX@@@                   o",
"o    XXX XX XXX  @ XX  ++XXX+XXX + XX XXX@@@                   o",
"o @@ XXX XX XXX @@ XX   +XXX+XXX +             @   @  @XX@ @@  o",
"o                                                              o",
"oooooooooooooooooooooooooooooooooooooooooooooooooooooooooooooooo",
"oooooooooooooooooooooooooooooooooooooooooooooooooooooooooooooooo",
"................................................................",
"................................................................",
"................................................................",
"................................................................",
"................................................................",
"................................................................",
"................................................................",
"................................................................",
"................................................................"
};
